<svg xmlns="http://www.w3.org/2000/svg" preserveAspectRatio="none">
    <defs>
    <symbol id="01d" viewBox="0 0 311.94 302.06">
        <path class="cls-1" d="M156.51,233.06c-42.21,0-76.54-34.33-76.54-76.54s34.33-76.54,76.54-76.54,76.55,34.33,76.55,76.54-34.33,76.54-76.55,76.54Zm0-139.73c-34.84,0-63.19,28.34-63.19,63.19s28.34,63.19,63.19,63.19,63.19-28.34,63.19-63.19-28.34-63.19-63.19-63.19Z"/>
        <path class="cls-1" d="M96.92,89.82c1.93,2.22,1.72,5.57-.49,7.51h0c-2.23,1.94-5.59,1.71-7.51-.49L49.34,51.61c-1.93-2.23-1.7-5.58,.49-7.49h0c2.21-1.93,5.58-1.73,7.51,.49l39.57,45.2Z"/>
        <path class="cls-1" d="M162.04,65.37c.03,2.93-2.34,5.33-5.27,5.35h0c-2.94,.02-5.33-2.33-5.36-5.29l-.43-60.07C150.96,2.4,153.33,.02,156.25,0h0c2.95-.01,5.33,2.33,5.36,5.29l.42,60.08Z"/>
        <path class="cls-1" d="M65.63,141.91c2.94,.24,5.09,2.81,4.87,5.73h0c-.24,2.93-2.79,5.11-5.74,4.88l-59.88-4.88c-2.93-.25-5.13-2.82-4.86-5.73H.02c.23-2.93,2.78-5.1,5.74-4.9l59.87,4.9Z"/>
        <path class="cls-1" d="M75.28,198.83c2.49-1.58,5.77-.83,7.34,1.65h0c1.56,2.47,.84,5.77-1.66,7.34l-50.79,32.1c-2.5,1.58-5.78,.84-7.33-1.64h0c-1.58-2.49-.84-5.77,1.66-7.34l50.78-32.11Z"/>
        <path class="cls-1" d="M120.65,238.42c1.05-2.76,4.11-4.14,6.85-3.11h0c2.74,1.04,4.13,4.09,3.12,6.86l-21.17,56.22c-1.06,2.75-4.11,4.14-6.83,3.1h0c-2.79-1.04-4.16-4.09-3.13-6.85l21.16-56.22Z"/>
        <path class="cls-1" d="M235.39,210.08c-2.61-1.37-3.61-4.57-2.23-7.17h0c1.35-2.6,4.57-3.61,7.18-2.23l53.17,27.95c2.61,1.39,3.61,4.6,2.23,7.17h0c-1.36,2.62-4.57,3.6-7.19,2.25l-53.15-27.97Z"/>
        <path class="cls-1" d="M247.57,145.25c-2.92,.34-5.56-1.75-5.9-4.65h0c-.35-2.92,1.73-5.58,4.66-5.91l59.67-6.98c2.93-.33,5.58,1.75,5.89,4.65h0c.36,2.94-1.73,5.57-4.66,5.93l-59.67,6.96Z"/>
        <path class="cls-1" d="M208.41,294.96c.99,2.77-.46,5.81-3.24,6.8h0c-2.78,.95-5.8-.48-6.78-3.25l-19.98-56.68c-.97-2.76,.49-5.81,3.24-6.77h0c2.77-.98,5.81,.46,6.78,3.24l19.96,56.66Z"/>
        <path class="cls-1" d="M218.24,91.29c-1.82,2.32-5.14,2.74-7.47,.94h0c-2.32-1.81-2.72-5.14-.92-7.46l37-47.37c1.81-2.31,5.15-2.74,7.46-.92h0c2.31,1.8,2.72,5.15,.9,7.48l-36.98,47.33Z"/>
    </symbol>
    <symbol id="01n" viewBox="0 0 239.39 187.96">
        <path class="cls-1" d="M136.22,1.3c16.65,10.64,29.83,26.89,36.38,47.16,14.93,46.34-10.49,96.04-56.81,110.98-4.03,1.29-8.05,2.19-12.09,2.9,21.41,13.67,48.52,18.05,74.59,9.63,46.33-14.95,71.78-64.65,56.82-110.99C221.44,18.63,178.79-6.09,136.22,1.3Z"/>
        <polygon class="cls-1" points="61 184.49 38.61 174.97 18.04 187.96 20.24 163.72 1.5 148.18 25.25 142.8 34.21 120.16 46.71 141.04 70.99 142.6 54.99 160.94 61 184.49"/>
        <polygon class="cls-1" points="47.35 73.58 29.51 65.99 13.17 76.34 14.91 57.06 0 44.68 18.89 40.41 26.02 22.39 35.96 38.98 55.28 40.24 42.57 54.84 47.35 73.58"/>
        <polygon class="cls-1" points="127.42 102.98 112.07 96.46 98.01 105.33 99.49 88.75 86.68 78.1 102.93 74.44 109.06 58.94 117.62 73.24 134.24 74.3 123.3 86.87 127.42 102.98"/>
    </symbol>
    <symbol id="02d" viewBox="0 0 430.94 344.52">
        <path class="cls-1" d="M274.32,76.48c1.52,1.73,4.18,1.92,5.93,.38,1.73-1.52,1.91-4.18,.37-5.93l-31.24-35.7c-1.54-1.76-4.19-1.91-5.94-.4-1.73,1.52-1.91,4.17-.39,5.93l31.26,35.72Z"/>
        <path class="cls-1" d="M327.91,55.85c2.31-.02,4.18-1.9,4.16-4.22l-.34-47.46c0-2.34-1.91-4.19-4.23-4.17-2.29,.02-4.18,1.89-4.16,4.24l.34,47.44c0,2.32,1.91,4.19,4.23,4.17Z"/>
        <path class="cls-1" d="M435.91,180.6l-42-22.09c-2.06-1.08-4.6-.29-5.68,1.76-1.08,2.04-.28,4.58,1.78,5.66l41.98,22.11c2.07,1.06,4.62,.29,5.68-1.79,1.09-2.02,.32-4.57-1.76-5.65Z"/>
        <path class="cls-1" d="M445.77,100.86l-47.12,5.51c-2.31,.28-3.95,2.37-3.68,4.67,.25,2.31,2.34,3.95,4.65,3.67l47.13-5.5c2.31-.28,3.96-2.34,3.68-4.67-.26-2.28-2.34-3.95-4.66-3.69Z"/>
        <path class="cls-1" d="M352.93,188.22c-.77-2.18-3.18-3.35-5.36-2.55-2.19,.76-3.33,3.15-2.57,5.34l15.79,44.77c.77,2.19,3.17,3.32,5.35,2.56,2.2-.77,3.34-3.18,2.55-5.36l-15.76-44.76Z"/>
        <path class="cls-1" d="M376.44,72.11l29.23-37.4c1.43-1.83,1.09-4.47-.72-5.89-1.83-1.42-4.47-1.1-5.9,.74l-29.22,37.41c-1.43,1.82-1.1,4.46,.73,5.89,1.83,1.42,4.47,1.08,5.89-.74Z"/>
        <path class="cls-1" d="M327.69,61.69c-34.11,0-61.85,27.76-61.85,61.86,0,3.61,.37,7.13,.97,10.58,4.96,.26,9.75,1.16,14.27,2.66-1.2-4.22-1.88-8.65-1.88-13.24,0-26.75,21.76-48.5,48.5-48.5s48.52,21.76,48.52,48.5-21.77,48.5-48.52,48.5c-4.31,0-8.47-.62-12.45-1.68,1.6,4.51,2.6,9.27,2.95,14.23,3.11,.48,6.27,.81,9.5,.81,34.11,0,61.87-27.76,61.87-61.86s-27.76-61.86-61.87-61.86Z"/>
        <path class="cls-1" d="M318.21,192.98c.12-1.47,.17-2.97,.17-4.47,0-1.29-.11-2.56-.2-3.83-.35-4.96-1.35-9.72-2.95-14.23-5.58-15.81-18.23-28.28-34.16-33.59-4.52-1.5-9.31-2.4-14.27-2.66-.96-.05-1.91-.14-2.88-.14-10.09,0-19.74,2.73-28.16,7.84-1.57-8.72-5.05-16.77-9.9-23.83l29.36,2.39c2.33,.2,4.35-1.54,4.54-3.86,.19-2.28-1.53-4.33-3.84-4.51l-37.58-3.08c-12.5-12.47-30.18-19.9-49.34-18.86-31.44,1.57-56.39,24.47-60.69,53.93-5.58-1.95-11.32-2.92-17.17-2.92-30.04,0-54.46,24.43-54.46,54.46,0,.56,.02,1.1,.06,1.68C21.53,201.47-.03,210.35,0,241.31c.03,24.65,21.89,44.7,48.74,44.7l2.58-.06c16.71-.83,85.91,.06,85.91,.04l.02-1.14c.12,.02,.24,.03,.36,.05l.05,1.09-.02-1.08c9.2,1.24,30.51,1.28,80.07,1.38,0,0,37.31,.63,64.34,.63h.05c10.15,0,18.87-.09,23.7-.33,12.83-.63,24.74-6.83,33.53-17.45,8.29-9.99,12.68-22.76,12.07-35.03-.96-19.15-14.27-35.31-33.18-41.15Zm10.83,67.66c-6.38,7.69-14.88,12.18-23.92,12.63-4.7,.24-13.17,.31-23.03,.31h-.05c-26.94,0-64.1-.63-64.21-.63-30.9-.06-77.76-.18-80.21-.28l-.17,3.02-.05-3.04s-32-.41-57.85-.41c-12.42,0-23.44,.09-28.9,.37l-1.91,.05c-19.49,0-35.37-14.07-35.39-31.37-.02-20.59,11.26-27.29,32.09-32.44l4.72-2,.43-4.74-.23-2.91c-.16-1.18-.34-2.35-.34-3.58,0-22.67,18.44-41.11,41.11-41.11,6.84,0,13.55,1.82,19.94,5.41l10.14,5.68-.2-11.62c-.46-26.94,20.91-49.12,48.64-50.5l2.7-.07c12.34,0,23.65,4.26,32.49,11.33,.43,.63,1.01,1.14,1.73,1.45,9.72,8.52,16.08,20.61,16.75,34.28,.05,.95,0,1.88-.12,4.29l-.65,17.22,12.07-12.29c7.81-7.94,18.2-12.31,29.29-12.31,2.39,0,4.7,.31,6.99,.71,16.82,2.91,30.16,16,33.34,32.73,.47,2.49,.77,5.04,.77,7.66,0,2.81-.3,5.55-.84,8.2l-1.36,6.72,6.75,1.19c16.02,2.82,27.72,15.23,28.47,30.18,.46,8.97-2.84,18.4-9.01,25.85Z"/>
    </symbol>
    <symbol id="02n" viewBox="0 0 240.25 173.85">
        <path class="cls-1" d="M236.13,58.72C222.96,17.94,181.89-5.88,140.89,1.26c16.04,10.21,28.72,25.88,35.03,45.4,9.09,28.19,2.64,57.64-14.56,79.16-.43-.17-.81-.38-1.24-.53,.01-.47,.03-.91,.03-1.38,0-15.53-12.63-28.15-28.14-28.15-4.67,0-9.16,1.12-13.17,3.27-3.35-14.42-16.55-25.04-32.23-25.04l-1.73,.02c-15.67,.79-28.2,11.88-30.94,26.38-2.49-.71-5.03-1.09-7.6-1.09-15.52,0-28.15,12.61-28.15,28.12C10.64,129.63-.02,134.6,0,150.07c.02,12.85,11.37,23.32,25.31,23.32l1.34-.03c8.27-.44,42.52,.02,42.53,.02v-.61c.09,0,.17,.01,.26,.03l.04,.58-.02-.58c5.21,.67,16.22,.67,39.61,.73,0,0,18.21,.32,31.6,.32,5.21,0,9.7-.06,12.16-.18,4.59-.23,8.91-1.91,12.68-4.67,5.3-.65,10.62-1.69,15.9-3.4,44.61-14.39,69.12-62.25,54.72-106.88ZM69.44,164.49l-.11,2.01-.05-2.02s-15.77-.2-28.58-.2c-6.22,0-11.76,.05-15.39,.21-8.89,0-16.39-6.61-16.41-14.42-.02-9.51,5.06-12.52,15.05-15l3.43-1.26-.14-4.85c-.07-.5-.16-1.02-.16-1.55,0-10.61,8.64-19.24,19.26-19.24,3.18,0,6.33,.87,9.33,2.52l6.75,3.8-.14-7.73c-.21-12.73,9.91-23.22,23.04-23.87l1.28-.03c12.92,0,23.51,9.77,24.13,22.3,.03,.43,0,.84-.07,1.93l-.48,11.56,8.11-8.24c3.65-3.72,8.52-5.77,13.71-5.77,10.61,0,19.24,8.65,19.24,19.25,0,1.32-.15,2.63-.4,3.86l-.87,4.45,4.48,.79c.1,.01,.19,.05,.3,.08-9.15,9.06-20.45,16.23-33.54,20.45-3.89,1.26-7.75,2.11-11.65,2.78,5.52,3.53,11.46,6.37,17.64,8.55-9.56-.09-18-.24-18.06-.24,0,0-37.78-.06-39.71-.14Z"/>
    </symbol>
    <symbol id="03d" viewBox="0 0 450.46 286.93">
        <path class="cls-1" d="M157.94,118.52c2.36,2.7,6.46,3,9.19,.61,2.7-2.36,2.96-6.47,.59-9.18l-48.41-55.33c-2.39-2.73-6.5-2.96-9.22-.61-2.67,2.34-2.96,6.45-.59,9.17l48.44,55.34Z"/>
        <path class="cls-1" d="M240.98,86.56c3.59-.02,6.5-2.96,6.46-6.54l-.52-73.54C246.89,2.85,243.97,0,240.36,0c-3.57,.03-6.47,2.95-6.44,6.56l.52,73.52c.03,3.62,2.96,6.5,6.55,6.47Z"/>
        <path class="cls-1" d="M408.37,279.87l-65.08-34.22c-3.19-1.69-7.13-.45-8.8,2.73-1.69,3.18-.47,7.1,2.73,8.78l65.06,34.23c3.22,1.66,7.14,.46,8.8-2.75,1.7-3.13,.5-7.07-2.72-8.77Z"/>
        <path class="cls-1" d="M423.66,156.34l-73.02,8.53c-3.59,.41-6.14,3.67-5.71,7.23,.41,3.57,3.65,6.1,7.22,5.7l73.02-8.52c3.6-.44,6.17-3.65,5.73-7.25-.39-3.56-3.63-6.11-7.23-5.68Z"/>
        <path class="cls-1" d="M316.24,111.76l45.26-57.95c2.22-2.84,1.73-6.94-1.11-9.14-2.83-2.23-6.91-1.71-9.13,1.13l-45.28,57.98c-2.22,2.83-1.72,6.91,1.11,9.13,2.86,2.2,6.93,1.69,9.15-1.15Z"/>
        <path class="cls-1" d="M330.82,191.58c0-50.83-41.36-92.19-92.2-92.19-41.37,0-76.46,27.4-88.09,65.01,.6-.05,1.19-.14,1.79-.17l3.08-.08c.17,0,.32,.04,.49,.04l-1.52,.04c-.6,.03-1.19,.12-1.79,.17-10.05,.79-19.3,4.02-27.25,8.98l-69.18-5.66c-3.62-.25-6.75,2.41-7.03,5.99-.32,3.56,2.37,6.72,5.96,7.02l56.51,4.6c-6.62,7.82-11.24,17.3-12.9,27.79-4.94-1.63-10-2.45-15.15-2.45-27.65,0-50.16,22.5-50.16,50.16,0,.37,.02,.72,.03,1.09C19.43,265.79-.02,274.1,0,302.42c.02,22.76,20.19,41.28,44.97,41.28l2.37-.06c15.16-.77,78.13,.05,78.16,.05l.02-1.08c.11,.01,.23,.03,.33,.05l.05,1.03-.02-1.02c8.74,1.17,28.4,1.2,72.86,1.29,0,0,33.91,.57,58.53,.57,9.28,0,17.26-.08,21.67-.3,11.11-.55,21.61-5.69,29.57-14.5,8.55-9.45,13.1-21.79,12.49-33.87-.69-14.23-8.86-26.58-21.09-33.71-.43-.25-.88-.45-1.31-.69,19.68-16.92,32.23-41.93,32.23-69.86Zm-23.17,104.92c.43,8.45-2.95,17.52-9.04,24.26-5.58,6.15-12.79,9.74-20.35,10.12-15.95,.8-79.25-.3-79.4-.29-28.09-.05-70.71-.16-72.98-.24l-.15,2.96-.06-2.98s-29.22-.38-52.77-.38c-11.27,0-21.26,.09-26.22,.34l-1.7,.04c-17.41,0-31.6-12.54-31.62-27.94-.02-18.46,9.66-24.23,28.75-28.94l4.83-1.94,.32-4.87-.2-2.52c-.14-1.09-.32-2.17-.32-3.29,0-20.29,16.52-36.8,36.8-36.8,6.12,0,12.12,1.63,17.87,4.84l10.13,5.68-.2-11.62c-.26-14.95,7.08-28.13,18.52-36.4,1.98-.3,3.68-1.4,4.65-3.1,4.57-2.52,9.63-4.34,15.06-5.23,1.79-.29,3.61-.52,5.47-.62l2.42-.06c1.92,0,3.8,.15,5.65,.37,21.88,2.61,39.08,20.04,40.17,41.87,.03,.81-.02,1.61-.14,3.9l-.59,17.18,12.03-12.27c6.99-7.11,16.29-11.02,26.23-11.02,20.28,0,36.8,16.51,36.8,36.8,0,2.47-.27,4.87-.71,7.19-.02,.06,0,.12-.02,.18l-1.34,6.69,6.72,1.19c1.78,.32,3.49,.76,5.15,1.33,11.6,3.98,19.68,13.92,20.24,25.59Zm-16.94-45.92c-1.94-25.89-23.52-46.39-49.9-46.39-9.01,0-17.62,2.35-25.19,6.77-4.69-23.92-24.4-42.37-49.03-46.08-.65-.1-1.33-.08-1.98-.16,11.02-30.26,39.98-51.98,74.02-51.98,43.47,0,78.84,35.37,78.84,78.84,0,23.49-10.41,44.55-26.76,59Z"/>
    </symbol>
    <symbol id="03n" viewBox="0 0 364.75 247.49">
        <path class="cls-1" d="M321.11,153.91c33.61-13.51,51.58-50.87,40.26-85.9-10.78-33.43-44.47-52.97-78.1-47.13,13.15,8.39,23.57,21.23,28.73,37.24,6.17,19.14,3.56,38.98-5.52,55.26-10.02-11.78-24.93-19.28-41.58-19.28-10.13,0-19.84,2.74-28.28,7.89-5.54-30.8-33.53-53.77-67.01-51.96-31.56,1.56-56.59,24.57-60.89,54.13-5.62-1.96-11.39-2.94-17.26-2.94-30.14,0-54.65,24.52-54.65,54.65,0,.56,0,1.12,.07,1.71C21.64,161.74-.02,170.65,0,201.74c.04,24.72,21.99,44.83,48.9,44.83l2.59-.07c16.8-.81,86.23,.07,86.25,.06v-1.15c.13,.02,.25,.04,.38,.06l.07,1.07-.04-1.07c9.23,1.25,30.62,1.28,80.35,1.38,0,0,37.35,.64,64.47,.64,10.26,0,19.08-.09,23.95-.34,25.7-1.28,47.06-25.88,45.74-52.66-.93-18.61-13.55-34.3-31.57-40.59Zm-14.84,79.91c-17.59,.87-87.48-.32-87.62-.32-30.98-.05-78.01-.18-80.51-.27l-.15,3.04-.08-3.05s-32.11-.41-58.06-.41c-12.47,0-23.55,.1-29.03,.37l-1.92,.04c-19.57,0-35.51-14.13-35.55-31.48-.02-20.69,11.32-27.43,32.23-32.63l5.14-1.31-.21-8.38c-.16-1.17-.34-2.34-.34-3.54,0-22.77,18.52-41.29,41.3-41.29,6.87,0,13.6,1.83,20.03,5.44l10.13,5.67-.2-11.61c-.47-27.05,21-49.33,48.85-50.71l2.71-.07c27.39,0,49.88,20.75,51.19,47.33,.05,.9-.02,1.77-.14,4.3l-.55,17.06,11.99-12.17c7.85-7.97,18.29-12.37,29.41-12.37,13.85,0,26.07,6.92,33.56,17.42-8.08,9.39-18.69,16.8-31.35,20.88-3.16,1.05-6.33,1.74-9.53,2.3,13.8,8.82,30.6,12.62,47.51,10.15l-1.07,5.5,6.71,1.17c16.08,2.82,27.84,15.29,28.57,30.3,.87,17.43-13.1,37.65-33.06,38.65Z"/>
        <polygon class="cls-1" points="248.78 63.43 258.73 57.15 269.59 61.76 266.67 50.36 274.43 41.46 262.67 40.71 256.61 30.6 252.27 41.56 240.77 44.18 249.84 51.7 248.78 63.43"/>
        <polygon class="cls-1" points="212.35 27.54 220.68 22.26 229.76 26.13 227.33 16.56 233.84 9.11 223.98 8.47 218.89 0 215.25 9.2 205.61 11.38 213.22 17.7 212.35 27.54"/>
    </symbol>
    <symbol id="04d" viewBox="0 0 414.8 212.65">
        <path d="M388.25,82.8c.05-.87,.08-1.74,.08-2.64,0-24.77-20.16-44.94-44.95-44.94-7.67,0-15.04,1.92-21.59,5.53-5.14-23.42-26.41-40.76-51.74-40.76l-2.75,.07c-22.34,1.12-40.49,15.46-47.31,34.95-12.54-12.97-30.59-20.79-50.38-19.83-31.56,1.57-56.6,24.56-60.89,54.13-5.61-1.96-11.39-2.94-17.27-2.94-30.13,0-54.65,24.51-54.65,54.63,0,.56,.02,1.12,.08,1.7C21.61,126.9-.05,135.79,0,166.88c.02,24.73,21.95,44.85,48.89,44.85l2.59-.06c16.75-.86,86.2,.05,86.23,.05l.02-1.14c.12,.02,.24,.04,.36,.05l.06,1.08-.02-1.08c9.22,1.25,30.6,1.28,80.35,1.38,0,0,37.39,.63,64.53,.63,10.23,0,19.02-.09,23.88-.34,25.48-1.27,46.68-25.47,45.74-51.98h0c1.63,0,3.27,0,4.82,0,8.37,0,15.57-.08,19.52-.28,10.67-.53,20.54-5.66,27.81-14.44,6.85-8.26,10.48-18.82,9.96-28.96-.75-15.57-11.34-28.75-26.5-33.84Zm-48.95,77.51c.87,17.42-13.09,37.67-33.06,38.66-17.6,.86-87.47-.32-87.63-.31-30.99-.06-77.99-.19-80.49-.28l-.17,3.04-.06-3.05s-32.1-.41-58.06-.41c-12.47,0-23.52,.09-29.01,.37l-1.92,.05c-19.58,0-35.52-14.13-35.54-31.51-.03-20.7,11.3-27.43,32.22-32.6l5.01-2.07,.17-5.06-.26-2.52c-.16-1.19-.35-2.39-.35-3.62,0-22.76,18.52-41.28,41.3-41.28,6.85,0,13.6,1.82,20.03,5.43l10.14,5.68-.2-11.61c-.46-27.05,20.99-49.32,48.85-50.71l2.72-.07c13.01,0,24.89,4.73,33.94,12.49,5.23,4.48,9.53,9.95,12.52,16.18,2.73,5.69,4.4,11.98,4.73,18.63,.05,.96,0,1.89-.13,4.3l-.65,17.2,12.09-12.27c7.83-7.97,18.28-12.37,29.39-12.37,22.78,0,41.29,18.51,41.29,41.27,0,2.83-.3,5.57-.84,8.24l-1.35,6.71,6.75,1.18c10.89,1.92,19.7,8.3,24.54,16.85,2.31,4.06,3.78,8.57,4.03,13.39,0,.02,0,.05,0,.07Zm55.22-23.24c-4.87,5.87-11.33,9.3-18.2,9.63-4.97,.25-15.18,.3-26.29,.25-4.85-13.42-16.08-24.09-30.69-28.59,.12-1.49,.18-2.98,.18-4.5,0-30.12-24.51-54.63-54.65-54.63-10.13,0-19.83,2.75-28.27,7.89-.9-5-2.45-9.75-4.47-14.26-.47-1.06-1.12-2.01-1.66-3.03,1.04-19.62,16.93-35.43,37.47-36.45l2.09-.05c21.14,0,38.49,16,39.51,36.39,.05,.76,0,1.5-.09,3.34l-.7,17.26,12.11-12.3c6.01-6.1,14-9.46,22.5-9.46,17.43,0,31.6,14.17,31.6,31.58,0,2.17-.22,4.28-.63,6.32l-1.35,6.7,6.74,1.19c12.22,2.15,21.14,11.57,21.69,22.93,.35,6.85-2.17,14.06-6.9,19.77Z"/>
    </symbol>
    <symbol id="04n" viewBox="0 0 414.8 212.65">
        <path d="M388.25,82.8c.05-.87,.08-1.74,.08-2.64,0-24.77-20.16-44.94-44.95-44.94-7.67,0-15.04,1.92-21.59,5.53-5.14-23.42-26.41-40.76-51.74-40.76l-2.75,.07c-22.34,1.12-40.49,15.46-47.31,34.95-12.54-12.97-30.59-20.79-50.38-19.83-31.56,1.57-56.6,24.56-60.89,54.13-5.61-1.96-11.39-2.94-17.27-2.94-30.13,0-54.65,24.51-54.65,54.63,0,.56,.02,1.12,.08,1.7C21.61,126.9-.05,135.79,0,166.88c.02,24.73,21.95,44.85,48.89,44.85l2.59-.06c16.75-.86,86.2,.05,86.23,.05l.02-1.14c.12,.02,.24,.04,.36,.05l.06,1.08-.02-1.08c9.22,1.25,30.6,1.28,80.35,1.38,0,0,37.39,.63,64.53,.63,10.23,0,19.02-.09,23.88-.34,25.48-1.27,46.68-25.47,45.74-51.98h0c1.63,0,3.27,0,4.82,0,8.37,0,15.57-.08,19.52-.28,10.67-.53,20.54-5.66,27.81-14.44,6.85-8.26,10.48-18.82,9.96-28.96-.75-15.57-11.34-28.75-26.5-33.84Zm-48.95,77.51c.87,17.42-13.09,37.67-33.06,38.66-17.6,.86-87.47-.32-87.63-.31-30.99-.06-77.99-.19-80.49-.28l-.17,3.04-.06-3.05s-32.1-.41-58.06-.41c-12.47,0-23.52,.09-29.01,.37l-1.92,.05c-19.58,0-35.52-14.13-35.54-31.51-.03-20.7,11.3-27.43,32.22-32.6l5.01-2.07,.17-5.06-.26-2.52c-.16-1.19-.35-2.39-.35-3.62,0-22.76,18.52-41.28,41.3-41.28,6.85,0,13.6,1.82,20.03,5.43l10.14,5.68-.2-11.61c-.46-27.05,20.99-49.32,48.85-50.71l2.72-.07c13.01,0,24.89,4.73,33.94,12.49,5.23,4.48,9.53,9.95,12.52,16.18,2.73,5.69,4.4,11.98,4.73,18.63,.05,.96,0,1.89-.13,4.3l-.65,17.2,12.09-12.27c7.83-7.97,18.28-12.37,29.39-12.37,22.78,0,41.29,18.51,41.29,41.27,0,2.83-.3,5.57-.84,8.24l-1.35,6.71,6.75,1.18c10.89,1.92,19.7,8.3,24.54,16.85,2.31,4.06,3.78,8.57,4.03,13.39,0,.02,0,.05,0,.07Zm55.22-23.24c-4.87,5.87-11.33,9.3-18.2,9.63-4.97,.25-15.18,.3-26.29,.25-4.85-13.42-16.08-24.09-30.69-28.59,.12-1.49,.18-2.98,.18-4.5,0-30.12-24.51-54.63-54.65-54.63-10.13,0-19.83,2.75-28.27,7.89-.9-5-2.45-9.75-4.47-14.26-.47-1.06-1.12-2.01-1.66-3.03,1.04-19.62,16.93-35.43,37.47-36.45l2.09-.05c21.14,0,38.49,16,39.51,36.39,.05,.76,0,1.5-.09,3.34l-.7,17.26,12.11-12.3c6.01-6.1,14-9.46,22.5-9.46,17.43,0,31.6,14.17,31.6,31.58,0,2.17-.22,4.28-.63,6.32l-1.35,6.7,6.74,1.19c12.22,2.15,21.14,11.57,21.69,22.93,.35,6.85-2.17,14.06-6.9,19.77Z"/>
    </symbol>
    <symbol id="09d" viewBox="0 0 358.22 282.7">
        <path class="cls-1" d="M324.23,105.03c.14-1.63,.22-3.24,.22-4.85,0-30.45-24.79-55.23-55.25-55.23-10.42,0-20.38,2.88-29.04,8.28C234.8,21.78,205.99-1.76,172.26,.1c-32.1,1.59-57.53,25.09-61.7,55.22-5.81-2.06-11.78-3.11-17.87-3.11-30.46,0-55.23,24.78-55.23,55.24,0,.66,.01,1.31,.07,2C22.1,113.65-.02,122.58,0,154.12c.02,23.44,19.51,43.56,46.05,44.82l8.13-12.54c-.96,.02-2.07,.04-2.82,.09l-1.98,.05c-20.13,0-36.52-14.55-36.53-32.44-.02-21.31,11.59-28.22,33.09-33.54l4.83-1.84,.14-4.88-.24-2.62c-.17-1.24-.36-2.5-.36-3.78,0-23.38,19.03-42.38,42.38-42.38,7.05,0,13.98,1.87,20.58,5.57l9.75,5.47-.2-11.19c-.48-27.73,21.53-50.56,50.07-51.98l2.78-.08c28.06,0,51.11,21.28,52.45,48.47,.06,.98,0,1.93-.14,4.43l-.58,16.52,11.61-11.79c8.03-8.18,18.76-12.69,30.17-12.69,23.38,0,42.4,19.02,42.4,42.38,0,2.9-.31,5.72-.87,8.47l-1.3,6.46,6.47,1.13c16.56,2.9,28.65,15.73,29.41,31.18,.78,15.52-9.93,33.15-26.14,38.26l4.28,11.97c20.49-6.81,35.83-27.97,34.7-50.85-.96-19.51-14.59-35.94-33.93-41.76Z"/>
        <path class="cls-1" d="M114.91,248.94h.02c-21.34-28.56-19.91-77.77-20.92-62.01-2.67,41.13-18.89,62.01-18.89,62.01h0c-1.35,2.58-2.11,5.41-2.11,8.43,0,10.89,9.84,19.73,22.01,19.73s22.02-8.83,22.02-19.73c0-3.02-.77-5.85-2.13-8.43Z"/>
        <path class="cls-1" d="M182.63,210.19h.02c-18.63-24.95-17.4-67.91-18.28-54.16-2.34,35.93-16.47,54.16-16.47,54.16h0c-1.18,2.23-1.87,4.71-1.87,7.35,0,9.51,8.62,17.22,19.22,17.22s19.24-7.71,19.24-17.22c0-2.64-.7-5.11-1.86-7.35Z"/>
        <path class="cls-1" d="M235.09,260.21h0c-17.04-22.83-15.89-62.15-16.73-49.56-2.11,32.86-15.07,49.56-15.07,49.56h0c-1.08,2.05-1.69,4.33-1.69,6.73,0,8.7,7.86,15.76,17.6,15.76s17.59-7.06,17.59-15.76c0-2.4-.62-4.68-1.7-6.73Z"/>
        <path class="cls-1" d="M256.24,193.17h0c-10.71-14.37-10-39.11-10.51-31.19-1.36,20.69-9.49,31.19-9.49,31.19h0c-.71,1.29-1.09,2.72-1.09,4.23,0,5.49,4.96,9.93,11.08,9.93s11.08-4.44,11.08-9.93c0-1.51-.38-2.94-1.08-4.23Z"/>
    </symbol>
    <symbol id="09n" viewBox="0 0 358.22 282.7">
        <path class="cls-1" d="M324.23,105.03c.14-1.63,.22-3.24,.22-4.85,0-30.45-24.79-55.23-55.25-55.23-10.42,0-20.38,2.88-29.04,8.28C234.8,21.78,205.99-1.76,172.26,.1c-32.1,1.59-57.53,25.09-61.7,55.22-5.81-2.06-11.78-3.11-17.87-3.11-30.46,0-55.23,24.78-55.23,55.24,0,.66,.01,1.31,.07,2C22.1,113.65-.02,122.58,0,154.12c.02,23.44,19.51,43.56,46.05,44.82l8.13-12.54c-.96,.02-2.07,.04-2.82,.09l-1.98,.05c-20.13,0-36.52-14.55-36.53-32.44-.02-21.31,11.59-28.22,33.09-33.54l4.83-1.84,.14-4.88-.24-2.62c-.17-1.24-.36-2.5-.36-3.78,0-23.38,19.03-42.38,42.38-42.38,7.05,0,13.98,1.87,20.58,5.57l9.75,5.47-.2-11.19c-.48-27.73,21.53-50.56,50.07-51.98l2.78-.08c28.06,0,51.11,21.28,52.45,48.47,.06,.98,0,1.93-.14,4.43l-.58,16.52,11.61-11.79c8.03-8.18,18.76-12.69,30.17-12.69,23.38,0,42.4,19.02,42.4,42.38,0,2.9-.31,5.72-.87,8.47l-1.3,6.46,6.47,1.13c16.56,2.9,28.65,15.73,29.41,31.18,.78,15.52-9.93,33.15-26.14,38.26l4.28,11.97c20.49-6.81,35.83-27.97,34.7-50.85-.96-19.51-14.59-35.94-33.93-41.76Z"/>
        <path class="cls-1" d="M114.91,248.94h.02c-21.34-28.56-19.91-77.77-20.92-62.01-2.67,41.13-18.89,62.01-18.89,62.01h0c-1.35,2.58-2.11,5.41-2.11,8.43,0,10.89,9.84,19.73,22.01,19.73s22.02-8.83,22.02-19.73c0-3.02-.77-5.85-2.13-8.43Z"/>
        <path class="cls-1" d="M182.63,210.19h.02c-18.63-24.95-17.4-67.91-18.28-54.16-2.34,35.93-16.47,54.16-16.47,54.16h0c-1.18,2.23-1.87,4.71-1.87,7.35,0,9.51,8.62,17.22,19.22,17.22s19.24-7.71,19.24-17.22c0-2.64-.7-5.11-1.86-7.35Z"/>
        <path class="cls-1" d="M235.09,260.21h0c-17.04-22.83-15.89-62.15-16.73-49.56-2.11,32.86-15.07,49.56-15.07,49.56h0c-1.08,2.05-1.69,4.33-1.69,6.73,0,8.7,7.86,15.76,17.6,15.76s17.59-7.06,17.59-15.76c0-2.4-.62-4.68-1.7-6.73Z"/>
        <path class="cls-1" d="M256.24,193.17h0c-10.71-14.37-10-39.11-10.51-31.19-1.36,20.69-9.49,31.19-9.49,31.19h0c-.71,1.29-1.09,2.72-1.09,4.23,0,5.49,4.96,9.93,11.08,9.93s11.08-4.44,11.08-9.93c0-1.51-.38-2.94-1.08-4.23Z"/>
    </symbol>
    <symbol id="10d" viewBox="0 0 358.22 373.54">
        <path class="cls-1" d="M324.22,105.02c.17-1.61,.24-3.22,.24-4.85,0-30.43-24.8-55.23-55.26-55.23-10.41,0-20.38,2.9-29.04,8.28C234.81,21.78,206-1.75,172.27,.1c-32.11,1.6-57.55,25.09-61.7,55.23-5.78-2.07-11.79-3.11-17.88-3.11-30.44,0-55.24,24.78-55.24,55.22,0,.67,.04,1.32,.09,2.02C22.12,113.66-.04,122.57,0,154.14c.04,23.43,19.51,43.55,46.06,44.79l8.12-12.52c-.95,0-2.05,.04-2.82,.07l-1.96,.06c-20.12,0-36.54-14.56-36.54-32.44-.03-21.29,11.61-28.21,33.08-33.55l4.83-1.84,.14-4.89-.24-2.6c-.17-1.25-.34-2.51-.34-3.8,0-23.35,19.02-42.36,42.37-42.36,7.07,0,13.99,1.87,20.57,5.58l9.78,5.47-.21-11.18c-.47-27.75,21.53-50.57,50.08-51.98l2.79-.08c28.06,0,51.1,21.27,52.44,48.46,.07,.99,0,1.95-.12,4.45l-.58,16.52,11.58-11.82c8.05-8.16,18.77-12.69,30.18-12.69,23.37,0,42.4,19.02,42.4,42.38,0,2.92-.31,5.74-.85,8.48l-1.31,6.46,6.49,1.14c16.55,2.89,28.65,15.71,29.41,31.18,.77,15.53-9.91,33.15-26.15,38.27l4.29,11.94c20.47-6.81,35.84-27.96,34.68-50.84-.96-19.51-14.6-35.95-33.94-41.78Z"/>
        <path class="cls-1" d="M88.4,332.31c0,1.53-1.77,2.81-3.96,2.81h0c-2.2,0-3.97-1.28-3.97-2.81V178.06c0-1.55,1.77-2.8,3.97-2.8h0c2.19,0,3.96,1.25,3.96,2.8v154.25Z"/>
        <path class="cls-1" d="M124.61,355.99c0,1.57-1.78,2.81-3.95,2.81h0c-2.2,0-3.97-1.25-3.97-2.81V201.76c0-1.57,1.77-2.83,3.97-2.83h0c2.17,0,3.95,1.26,3.95,2.83v154.24Z"/>
        <path class="cls-1" d="M179.1,322.31c0,1.55-1.77,2.81-3.94,2.81h0c-2.19,0-3.96-1.26-3.96-2.81V168.07c0-1.55,1.77-2.8,3.96-2.8h0c2.17,0,3.94,1.25,3.94,2.8v154.24Z"/>
        <path class="cls-1" d="M222.49,370.73c0,1.53-1.78,2.81-3.95,2.81h0c-2.2,0-3.97-1.28-3.97-2.81V216.48c0-1.55,1.77-2.8,3.97-2.8h0c2.17,0,3.95,1.25,3.95,2.8v154.25Z"/>
        <path class="cls-1" d="M263.54,322.31c0,1.55-1.79,2.81-3.96,2.81h0c-2.2,0-3.97-1.26-3.97-2.81V168.07c0-1.55,1.78-2.8,3.97-2.8h0c2.17,0,3.96,1.25,3.96,2.8v154.24Z"/>
    </symbol>
    <symbol id="10n" viewBox="0 0 358.22 373.54">
        <path class="cls-1" d="M324.22,105.02c.17-1.61,.24-3.22,.24-4.85,0-30.43-24.8-55.23-55.26-55.23-10.41,0-20.38,2.9-29.04,8.28C234.81,21.78,206-1.75,172.27,.1c-32.11,1.6-57.55,25.09-61.7,55.23-5.78-2.07-11.79-3.11-17.88-3.11-30.44,0-55.24,24.78-55.24,55.22,0,.67,.04,1.32,.09,2.02C22.12,113.66-.04,122.57,0,154.14c.04,23.43,19.51,43.55,46.06,44.79l8.12-12.52c-.95,0-2.05,.04-2.82,.07l-1.96,.06c-20.12,0-36.54-14.56-36.54-32.44-.03-21.29,11.61-28.21,33.08-33.55l4.83-1.84,.14-4.89-.24-2.6c-.17-1.25-.34-2.51-.34-3.8,0-23.35,19.02-42.36,42.37-42.36,7.07,0,13.99,1.87,20.57,5.58l9.78,5.47-.21-11.18c-.47-27.75,21.53-50.57,50.08-51.98l2.79-.08c28.06,0,51.1,21.27,52.44,48.46,.07,.99,0,1.95-.12,4.45l-.58,16.52,11.58-11.82c8.05-8.16,18.77-12.69,30.18-12.69,23.37,0,42.4,19.02,42.4,42.38,0,2.92-.31,5.74-.85,8.48l-1.31,6.46,6.49,1.14c16.55,2.89,28.65,15.71,29.41,31.18,.77,15.53-9.91,33.15-26.15,38.27l4.29,11.94c20.47-6.81,35.84-27.96,34.68-50.84-.96-19.51-14.6-35.95-33.94-41.78Z"/>
        <path class="cls-1" d="M88.4,332.31c0,1.53-1.77,2.81-3.96,2.81h0c-2.2,0-3.97-1.28-3.97-2.81V178.06c0-1.55,1.77-2.8,3.97-2.8h0c2.19,0,3.96,1.25,3.96,2.8v154.25Z"/>
        <path class="cls-1" d="M124.61,355.99c0,1.57-1.78,2.81-3.95,2.81h0c-2.2,0-3.97-1.25-3.97-2.81V201.76c0-1.57,1.77-2.83,3.97-2.83h0c2.17,0,3.95,1.26,3.95,2.83v154.24Z"/>
        <path class="cls-1" d="M179.1,322.31c0,1.55-1.77,2.81-3.94,2.81h0c-2.19,0-3.96-1.26-3.96-2.81V168.07c0-1.55,1.77-2.8,3.96-2.8h0c2.17,0,3.94,1.25,3.94,2.8v154.24Z"/>
        <path class="cls-1" d="M222.49,370.73c0,1.53-1.78,2.81-3.95,2.81h0c-2.2,0-3.97-1.28-3.97-2.81V216.48c0-1.55,1.77-2.8,3.97-2.8h0c2.17,0,3.95,1.25,3.95,2.8v154.25Z"/>
        <path class="cls-1" d="M263.54,322.31c0,1.55-1.79,2.81-3.96,2.81h0c-2.2,0-3.97-1.26-3.97-2.81V168.07c0-1.55,1.78-2.8,3.97-2.8h0c2.17,0,3.96,1.25,3.96,2.8v154.24Z"/>
    </symbol>
    <symbol id="11d" viewBox="0 0 358.2 410.77">
        <polygon class="cls-1" points="137.43 410.77 138.86 407.55 189.01 294.98 140.29 294.85 181.78 198.48 185.77 198.48 157.69 282.37 210.01 282.76 137.43 410.77"/>
        <path class="cls-1" d="M324.22,105.03c.14-1.63,.22-3.25,.22-4.86,0-30.43-24.77-55.22-55.24-55.22-10.43,0-20.4,2.89-29.04,8.27C234.8,21.78,205.98-1.75,172.25,.1c-32.11,1.6-57.53,25.09-61.7,55.2-5.78-2.04-11.78-3.08-17.87-3.08-30.43,0-55.23,24.77-55.23,55.23,0,.65,.02,1.32,.07,2.01C22.1,113.66-.04,122.57,0,154.13c.03,23.43,19.5,43.56,46.04,44.82l8.14-12.55c-.96,.03-2.05,.06-2.82,.09l-1.98,.05c-20.12,0-36.52-14.54-36.54-32.41-.01-21.33,11.6-28.23,33.09-33.58l4.83-1.84,.14-4.86-.24-2.61c-.17-1.26-.34-2.49-.34-3.78,0-23.38,19-42.38,42.35-42.38,7.06,0,13.98,1.85,20.59,5.58l9.75,5.45-.2-11.18c-.49-27.73,21.54-50.55,50.06-51.98l2.79-.06c28.08,0,51.1,21.26,52.46,48.44,.05,.99,0,1.96-.14,4.45l-.58,16.52,11.6-11.79c8.03-8.19,18.77-12.69,30.18-12.69,23.37,0,42.38,18.99,42.38,42.36,0,2.9-.31,5.73-.86,8.48l-1.31,6.44,6.48,1.14c16.55,2.89,28.65,15.73,29.41,31.19,.78,15.51-9.91,33.16-26.14,38.26l4.29,11.97c20.48-6.82,35.83-27.99,34.69-50.87-.95-19.48-14.59-35.93-33.92-41.75Z"/>
        <path class="cls-1" d="M88.4,332.29c0,1.55-1.77,2.8-3.96,2.8h0c-2.19,0-3.96-1.25-3.96-2.8V178.04c0-1.53,1.77-2.78,3.96-2.78h0c2.19,0,3.96,1.25,3.96,2.78v154.25Z"/>
        <path class="cls-1" d="M124.59,355.99c0,1.55-1.77,2.81-3.96,2.81h0c-2.2,0-3.97-1.26-3.97-2.81V201.76c0-1.57,1.77-2.81,3.97-2.81h0c2.19,0,3.96,1.25,3.96,2.81v154.24Z"/>
        <path class="cls-1" d="M222.47,370.72c0,1.55-1.78,2.8-3.95,2.8h0c-2.2,0-3.96-1.25-3.96-2.8V216.47c0-1.52,1.77-2.78,3.96-2.78h0c2.17,0,3.95,1.26,3.95,2.78v154.25Z"/>
        <path class="cls-1" d="M263.51,322.31c0,1.55-1.79,2.8-3.95,2.8h0c-2.18,0-3.96-1.25-3.96-2.8V168.06c0-1.52,1.78-2.78,3.96-2.78h0c2.17,0,3.95,1.26,3.95,2.78v154.25Z"/>
    </symbol>
    <symbol id="11n" viewBox="0 0 358.2 410.77">
        <polygon class="cls-1" points="137.43 410.77 138.86 407.55 189.01 294.98 140.29 294.85 181.78 198.48 185.77 198.48 157.69 282.37 210.01 282.76 137.43 410.77"/>
        <path class="cls-1" d="M324.22,105.03c.14-1.63,.22-3.25,.22-4.86,0-30.43-24.77-55.22-55.24-55.22-10.43,0-20.4,2.89-29.04,8.27C234.8,21.78,205.98-1.75,172.25,.1c-32.11,1.6-57.53,25.09-61.7,55.2-5.78-2.04-11.78-3.08-17.87-3.08-30.43,0-55.23,24.77-55.23,55.23,0,.65,.02,1.32,.07,2.01C22.1,113.66-.04,122.57,0,154.13c.03,23.43,19.5,43.56,46.04,44.82l8.14-12.55c-.96,.03-2.05,.06-2.82,.09l-1.98,.05c-20.12,0-36.52-14.54-36.54-32.41-.01-21.33,11.6-28.23,33.09-33.58l4.83-1.84,.14-4.86-.24-2.61c-.17-1.26-.34-2.49-.34-3.78,0-23.38,19-42.38,42.35-42.38,7.06,0,13.98,1.85,20.59,5.58l9.75,5.45-.2-11.18c-.49-27.73,21.54-50.55,50.06-51.98l2.79-.06c28.08,0,51.1,21.26,52.46,48.44,.05,.99,0,1.96-.14,4.45l-.58,16.52,11.6-11.79c8.03-8.19,18.77-12.69,30.18-12.69,23.37,0,42.38,18.99,42.38,42.36,0,2.9-.31,5.73-.86,8.48l-1.31,6.44,6.48,1.14c16.55,2.89,28.65,15.73,29.41,31.19,.78,15.51-9.91,33.16-26.14,38.26l4.29,11.97c20.48-6.82,35.83-27.99,34.69-50.87-.95-19.48-14.59-35.93-33.92-41.75Z"/>
        <path class="cls-1" d="M88.4,332.29c0,1.55-1.77,2.8-3.96,2.8h0c-2.19,0-3.96-1.25-3.96-2.8V178.04c0-1.53,1.77-2.78,3.96-2.78h0c2.19,0,3.96,1.25,3.96,2.78v154.25Z"/>
        <path class="cls-1" d="M124.59,355.99c0,1.55-1.77,2.81-3.96,2.81h0c-2.2,0-3.97-1.26-3.97-2.81V201.76c0-1.57,1.77-2.81,3.97-2.81h0c2.19,0,3.96,1.25,3.96,2.81v154.24Z"/>
        <path class="cls-1" d="M222.47,370.72c0,1.55-1.78,2.8-3.95,2.8h0c-2.2,0-3.96-1.25-3.96-2.8V216.47c0-1.52,1.77-2.78,3.96-2.78h0c2.17,0,3.95,1.26,3.95,2.78v154.25Z"/>
        <path class="cls-1" d="M263.51,322.31c0,1.55-1.79,2.8-3.95,2.8h0c-2.18,0-3.96-1.25-3.96-2.8V168.06c0-1.52,1.78-2.78,3.96-2.78h0c2.17,0,3.95,1.26,3.95,2.78v154.25Z"/>
    </symbol>
    <symbol id="13d" viewBox="0 0 152.76 153.34">
        <path class="cls-1" d="M24.04,130.12h11.48v-11.3h-11.48v11.3Zm44.66,15.21l8.11,8.01,8.11-8.01-8.11-8.11-8.11,8.11ZM8.02,69.26L0,77.38l8.11,7.93,8.01-7.93-8.1-8.12Zm110.19,60.86h11.44v-11.3h-11.44v11.3ZM34.88,23.63h-11.37v11.44h11.37v-11.44Zm95.62,0h-11.42v11.44h11.42v-11.44Zm-45.89-15.6L76.47,0l-8.09,8.04,8.09,8.08,8.14-8.08Zm56.48,86.32l-7.33-17.5,7.33-16.54-13.44,13.96h-21.81l7.86-12.27-14.03-2.64,15.49-15.67h18.99l-17.4-6.31-6.59-17.42v19.28l-15.11,15.76-2.29-14.96-12.63,8.58V27.35l13.77-14.36-16.4,8.18-17.17-7.52,13.75,13.7v21.27l-12.78-7.73-2.13,14.11-15.46-15.76V19.96l-6.02,17.42-17.91,6.88h19.27l15.42,15.11-15.84,3.48,9.74,11.43H26.5l-13.71-13.96,6.61,17.07-6.61,16.97,13.71-14.36h21.86l-9.74,12.75,15.84,2.51-15.42,15.39H19.77l17.91,6.21,5.8,17.18,.23-18.96,14.89-14.88,2.7,15.34,12.78-9.48v21.85l-13.75,13.46,16.75-7.4,16.49,7.4-13.44-13.46v-21.85l12.63,8.58,2.29-14.95,15.39,15.39,.32,18.96,5.61-16.75,17.79-6.63h-18.99l-15.49-14.81,14.92-4.39-8.75-11.44h21.81l13.44,14.36Zm-80.77-28.82l9.35,8.74h-12.55l3.21-8.74Zm.6,23.93l-3.81-9.46h12.55l-8.75,9.46Zm13.15,7.83l-8.47-3.46,8.47-9.34v12.81Zm0-27.46l-8.47-8.73,8.47-3.75v12.47Zm19.49-4.29l3.24,8.74h-12.6l9.37-8.74Zm-13.1-8.18l8.98,3.75-8.98,8.73v-12.47Zm0,40.19v-13.06l8.98,8.74-8.98,4.32Zm12.58-8.08l-8.84-9.46h13.43l-4.59,9.46Zm51.62-20.47l-8.08,7.99,8.08,8.08,8.11-8.08-8.11-7.99Z"/>
    </symbol>
    <symbol id="13n" viewBox="0 0 152.76 153.34">
        <path class="cls-1" d="M24.04,130.12h11.48v-11.3h-11.48v11.3Zm44.66,15.21l8.11,8.01,8.11-8.01-8.11-8.11-8.11,8.11ZM8.02,69.26L0,77.38l8.11,7.93,8.01-7.93-8.1-8.12Zm110.19,60.86h11.44v-11.3h-11.44v11.3ZM34.88,23.63h-11.37v11.44h11.37v-11.44Zm95.62,0h-11.42v11.44h11.42v-11.44Zm-45.89-15.6L76.47,0l-8.09,8.04,8.09,8.08,8.14-8.08Zm56.48,86.32l-7.33-17.5,7.33-16.54-13.44,13.96h-21.81l7.86-12.27-14.03-2.64,15.49-15.67h18.99l-17.4-6.31-6.59-17.42v19.28l-15.11,15.76-2.29-14.96-12.63,8.58V27.35l13.77-14.36-16.4,8.18-17.17-7.52,13.75,13.7v21.27l-12.78-7.73-2.13,14.11-15.46-15.76V19.96l-6.02,17.42-17.91,6.88h19.27l15.42,15.11-15.84,3.48,9.74,11.43H26.5l-13.71-13.96,6.61,17.07-6.61,16.97,13.71-14.36h21.86l-9.74,12.75,15.84,2.51-15.42,15.39H19.77l17.91,6.21,5.8,17.18,.23-18.96,14.89-14.88,2.7,15.34,12.78-9.48v21.85l-13.75,13.46,16.75-7.4,16.49,7.4-13.44-13.46v-21.85l12.63,8.58,2.29-14.95,15.39,15.39,.32,18.96,5.61-16.75,17.79-6.63h-18.99l-15.49-14.81,14.92-4.39-8.75-11.44h21.81l13.44,14.36Zm-80.77-28.82l9.35,8.74h-12.55l3.21-8.74Zm.6,23.93l-3.81-9.46h12.55l-8.75,9.46Zm13.15,7.83l-8.47-3.46,8.47-9.34v12.81Zm0-27.46l-8.47-8.73,8.47-3.75v12.47Zm19.49-4.29l3.24,8.74h-12.6l9.37-8.74Zm-13.1-8.18l8.98,3.75-8.98,8.73v-12.47Zm0,40.19v-13.06l8.98,8.74-8.98,4.32Zm12.58-8.08l-8.84-9.46h13.43l-4.59,9.46Zm51.62-20.47l-8.08,7.99,8.08,8.08,8.11-8.08-8.11-7.99Z"/>
    </symbol>
    <symbol id="50d" viewBox="0 0 334.15 113.21">
        <path class="cls-1" d="M334.15,28.96c-11.25,0-17.14-6.35-21.87-11.46-4.45-4.8-7.96-8.6-15.32-8.6s-10.88,3.8-15.32,8.62c-4.76,5.09-10.63,11.44-21.88,11.44s-17.11-6.35-21.84-11.46c-4.45-4.8-7.97-8.6-15.3-8.6s-10.86,3.8-15.31,8.6c-4.72,5.1-10.6,11.46-21.83,11.46s-17.11-6.35-21.84-11.46c-4.45-4.8-7.97-8.6-15.3-8.6s-10.83,3.8-15.26,8.6c-4.72,5.1-10.6,11.46-21.81,11.46s-17.09-6.37-21.8-11.46c-4.43-4.8-7.92-8.6-15.23-8.6s-10.85,3.8-15.3,8.62c-4.73,5.09-10.58,11.44-21.8,11.44s-17.09-6.35-21.83-11.46C10.85,12.7,7.34,8.9,0,8.9V0C11.22,0,17.09,6.35,21.83,11.47c4.43,4.79,7.95,8.59,15.29,8.59s10.83-3.8,15.27-8.59C57.11,6.35,62.99,0,74.21,0s17.06,6.35,21.77,11.46c4.44,4.8,7.96,8.6,15.27,8.6s10.83-3.8,15.26-8.59c4.72-5.12,10.6-11.47,21.81-11.47s17.11,6.35,21.84,11.47c4.45,4.79,7.96,8.59,15.3,8.59s10.85-3.8,15.3-8.59c4.73-5.12,10.61-11.47,21.84-11.47s17.11,6.35,21.84,11.47c4.45,4.79,7.96,8.59,15.3,8.59s10.88-3.8,15.33-8.6c4.76-5.1,10.62-11.46,21.87-11.46s17.13,6.35,21.86,11.46c4.45,4.8,7.99,8.6,15.34,8.6v8.9Z"/>
        <path class="cls-1" d="M334.15,69.25c-11.25,0-17.14-6.37-21.87-11.47-4.45-4.82-7.96-8.6-15.32-8.6s-10.88,3.78-15.32,8.6c-4.74,5.12-10.63,11.47-21.88,11.47s-17.11-6.35-21.84-11.47c-4.45-4.82-7.97-8.6-15.3-8.6s-10.86,3.78-15.31,8.6c-4.72,5.12-10.6,11.47-21.83,11.47s-17.11-6.35-21.84-11.47c-4.45-4.82-7.97-8.6-15.3-8.6s-10.83,3.78-15.26,8.6c-4.72,5.1-10.6,11.47-21.81,11.47s-17.09-6.37-21.8-11.49c-4.43-4.8-7.92-8.58-15.23-8.58s-10.85,3.81-15.3,8.6c-4.73,5.12-10.58,11.47-21.8,11.47s-17.09-6.37-21.83-11.47c-4.44-4.82-7.95-8.6-15.29-8.6v-8.9c11.22,0,17.09,6.37,21.83,11.46,4.45,4.82,7.95,8.62,15.29,8.62s10.83-3.8,15.27-8.6c4.73-5.1,10.61-11.47,21.83-11.47s17.06,6.34,21.77,11.46c4.44,4.82,7.96,8.62,15.27,8.62s10.83-3.8,15.26-8.62c4.72-5.09,10.6-11.46,21.81-11.46s17.11,6.34,21.84,11.46c4.45,4.82,7.96,8.62,15.3,8.62s10.85-3.8,15.3-8.62c4.73-5.12,10.61-11.46,21.84-11.46s17.11,6.34,21.84,11.46c4.45,4.82,7.96,8.62,15.3,8.62s10.88-3.8,15.33-8.62c4.73-5.12,10.62-11.46,21.87-11.46s17.13,6.34,21.86,11.46c4.45,4.8,7.99,8.62,15.34,8.62v8.9Z"/>
        <path class="cls-1" d="M334.15,113.21c-11.25,0-17.14-6.35-21.87-11.46-4.45-4.8-7.96-8.6-15.32-8.6s-10.88,3.8-15.32,8.62c-4.76,5.09-10.63,11.44-21.88,11.44s-17.11-6.35-21.84-11.46c-4.45-4.8-7.97-8.6-15.3-8.6s-10.86,3.8-15.31,8.6c-4.72,5.1-10.6,11.46-21.83,11.46s-17.11-6.35-21.84-11.46c-4.45-4.8-7.97-8.6-15.3-8.6s-10.83,3.8-15.26,8.6c-4.72,5.1-10.6,11.46-21.81,11.46s-17.09-6.38-21.8-11.46c-4.43-4.8-7.92-8.6-15.23-8.6s-10.85,3.8-15.3,8.62c-4.73,5.09-10.58,11.44-21.8,11.44s-17.09-6.35-21.83-11.46c-4.44-4.8-7.95-8.6-15.29-8.6v-8.9c11.22,0,17.09,6.35,21.83,11.46,4.43,4.82,7.95,8.6,15.29,8.6s10.83-3.78,15.27-8.6c4.73-5.1,10.61-11.46,21.83-11.46s17.06,6.35,21.77,11.44c4.44,4.83,7.96,8.62,15.27,8.62s10.83-3.78,15.26-8.6c4.72-5.1,10.6-11.46,21.81-11.46s17.11,6.35,21.84,11.46c4.45,4.82,7.96,8.6,15.3,8.6s10.85-3.78,15.3-8.6c4.73-5.1,10.61-11.46,21.84-11.46s17.11,6.35,21.84,11.46c4.45,4.82,7.96,8.6,15.3,8.6s10.88-3.78,15.33-8.62c4.76-5.09,10.62-11.44,21.87-11.44s17.13,6.35,21.86,11.44c4.45,4.83,7.99,8.62,15.34,8.62v8.9Z"/>
    </symbol>
        <symbol id="spinner" viewBox="0 0 100 100">
            <circle cx="50" cy="50" fill="none" stroke-width="10" r="35"
                    stroke-dasharray="164.93361431346415 56.97787143782138" transform="matrix(1,0,0,1,0,0)"
                    style="transform:matrix(1, 0, 0, 1, 0, 0);animation-play-state:paused"></circle>
        </symbol>
    </defs>
</svg>